<?xml version="1.0" encoding="utf-8"?>
<!-- Generator: Adobe Illustrator 19.1.0, SVG Export Plug-In . SVG Version: 6.00 Build 0)  -->
<svg version="1.1" id="Layer_1" xmlns="http://www.w3.org/2000/svg" xmlns:xlink="http://www.w3.org/1999/xlink" x="0px" y="0px"
	 viewBox="0 0 1600 246" style="enable-background:new 0 0 1600 246;" xml:space="preserve">
<g>
	<defs>
		<rect id="SVGID_1_" width="1600" height="246"/>
	</defs>
	<clipPath id="SVGID_2_">
		<use xlink:href="#SVGID_1_"  style="overflow:visible;"/>
	</clipPath>
	<g style="clip-path:url(#SVGID_2_);">
		<rect style="fill:#82A43E;" width="1600" height="246"/>
		
			<rect x="1137.4" y="134.6" transform="matrix(-0.6151 -0.7885 0.7885 -0.6151 1774.8136 1666.6494)" style="fill:#FFFFFF;" width="313.6" height="530.9"/>
		
			<rect x="831.7" y="-394.1" transform="matrix(-0.6151 -0.7885 0.7885 -0.6151 1697.8752 571.6813)" style="fill:#2A2A2A;" width="313.6" height="530.9"/>
		
			<rect x="1120.1" y="-400.7" transform="matrix(-0.6151 -0.7885 0.7885 -0.6151 1698.5917 1145.8625)" style="fill:#2A2A2A;" width="17.9" height="1118"/>
		
			<rect x="1550.2" y="-960.6" transform="matrix(-0.6151 -0.7885 0.7885 -0.6151 2749.8757 754.4483)" style="fill:#FFFFFF;" width="17.9" height="1333.2"/>
		
			<rect x="25.3" y="-91.3" transform="matrix(-0.6151 -0.7885 0.7885 -0.6151 -398.431 956.1436)" style="fill:#2A2A2A;" width="17.9" height="1333.2"/>
		
			<rect x="695.2" y="-91.3" transform="matrix(-0.6151 -0.7885 0.7885 -0.6151 683.5239 1484.3641)" style="fill:#FFFFFF;" width="17.9" height="1333.2"/>
		
			<rect x="-8.9" y="-461.8" transform="matrix(-0.6151 -0.7885 0.7885 -0.6151 -161.4663 330.7315)" style="fill:#FFFFFF;" width="17.9" height="1333.2"/>
		
			<rect x="114" y="-420.6" transform="matrix(-0.6151 -0.7885 0.7885 -0.6151 4.5724 494.2323)" style="fill:#2A2A2A;" width="17.9" height="1333.2"/>
	</g>
</g>
</svg>
