<?xml version="1.0" encoding="utf-8"?>
<!-- Generator: Adobe Illustrator 19.1.0, SVG Export Plug-In . SVG Version: 6.00 Build 0)  -->
<svg version="1.1" id="Layer_1" xmlns="http://www.w3.org/2000/svg" xmlns:xlink="http://www.w3.org/1999/xlink" x="0px" y="0px"
	 viewBox="0 0 1710 1080" style="enable-background:new 0 0 1710 1080;" xml:space="preserve">
<g>
	<defs>
		<rect id="SVGID_1_" width="1710" height="1080"/>
	</defs>
	<clipPath id="SVGID_2_">
		<use xlink:href="#SVGID_1_"  style="overflow:visible;"/>
	</clipPath>
	<g style="clip-path:url(#SVGID_2_);">
		<rect style="fill:#82A43E;" width="1710" height="1080"/>
		
			<rect x="-80.7" y="-277.1" transform="matrix(-0.6151 -0.7885 0.7885 -0.6151 132.1101 41.2597)" style="fill:#2A2A2A;" width="313.6" height="530.9"/>
		
			<rect x="1449.5" y="-349.1" transform="matrix(-0.6151 -0.7885 0.7885 -0.6151 2660.1667 1131.4668)" style="fill:#FFFFFF;" width="313.6" height="530.9"/>
		
			<rect x="1223.1" y="885.3" transform="matrix(-0.6151 -0.7885 0.7885 -0.6151 1321.2532 2946.6267)" style="fill:#2A2A2A;" width="313.6" height="530.9"/>
		
			<rect x="218.7" y="-445.7" transform="matrix(-0.6151 -0.7885 0.7885 -0.6151 278.3333 362.5019)" style="fill:#2A2A2A;" width="17.9" height="1118"/>
		
			<rect x="1207.5" y="85.3" transform="matrix(-0.6151 -0.7885 0.7885 -0.6151 1371.7773 2173.522)" style="fill:#2A2A2A;" width="17.9" height="1333.2"/>
		
			<rect x="1269.2" y="130.8" transform="matrix(-0.6151 -0.7885 0.7885 -0.6151 1435.5645 2295.6394)" style="fill:#FFFFFF;" width="17.9" height="1333.2"/>
		
			<rect x="48.3" y="354.1" transform="matrix(-0.6151 -0.7885 0.7885 -0.6151 -712.2755 1693.6025)" style="fill:#2A2A2A;" width="17.9" height="1333.2"/>
		
			<rect x="-259.2" y="378.6" transform="matrix(-0.6151 -0.7885 0.7885 -0.6151 -1228.2703 1490.7518)" style="fill:#FFFFFF;" width="17.9" height="1333.2"/>
		
			<rect x="-259.2" y="197.3" transform="matrix(-0.6151 -0.7885 0.7885 -0.6151 -1085.2949 1197.8953)" style="fill:#FFFFFF;" width="17.9" height="1333.2"/>
		
			<rect x="1145.6" y="-843.7" transform="matrix(-0.6151 -0.7885 0.7885 -0.6151 2004.3657 624.2893)" style="fill:#2A2A2A;" width="17.9" height="1333.2"/>
	</g>
</g>
</svg>
