<?xml version="1.0" encoding="utf-8"?>
<!-- Generator: Adobe Illustrator 19.1.0, SVG Export Plug-In . SVG Version: 6.00 Build 0)  -->
<svg version="1.1" id="Layer_1" xmlns="http://www.w3.org/2000/svg" xmlns:xlink="http://www.w3.org/1999/xlink" x="0px" y="0px"
	 viewBox="0 0 315.5 74.1" style="enable-background:new 0 0 315.5 74.1;" xml:space="preserve">
<g>
	<path style="fill:#82A43E;" d="M24.4,23.1v4.2h-3.2v-4.4c0-5.4-2.1-9.5-7.6-9.5c-5.5,0-7.6,4.1-7.6,9.5v26.2c0,5.4,2.1,9.4,7.6,9.4
		c5.5,0,7.6-4,7.6-9.4v-6h3.2v5.8c0,7.3-3.2,12.7-10.9,12.7S2.7,56.2,2.7,48.9V23.1c0-7.3,3.2-12.7,10.9-12.7S24.4,15.8,24.4,23.1z"
		/>
	<path style="fill:#82A43E;" d="M33.1,37.5v23.7h-3.3V10.8h3.3v23.7h15.7V10.8h3.4v50.4h-3.4V37.5H33.1z"/>
	<path style="fill:#82A43E;" d="M62.8,50l-2.5,11.2h-3l11-50.5h4.8l11.2,50.5H81L78.5,50H62.8z M63.3,47.2H78l-7.4-32.6L63.3,47.2z"
		/>
	<path style="fill:#82A43E;" d="M100.4,10.8c7.8,0,11.2,5.1,11.2,12.5v25.3c0,7.4-3.4,12.5-11.2,12.5H89.3V10.8H100.4z M100.4,58.2
		c5.6,0,7.9-3.8,7.9-9.4V23.2c0-5.5-2.4-9.4-7.9-9.4h-7.7v44.4H100.4z"/>
	<path style="fill:#FFFFFF;" d="M140.3,61.2h-4.6l-8.1-50.4h3.2l7.6,45.9l7.3-45.7h3.5l7.1,45.6l7.3-45.8h3l-8.1,50.4h-4.3
		l-6.8-41.3L140.3,61.2z"/>
	<path style="fill:#FFFFFF;" d="M175.4,50l-2.5,11.2h-3l11-50.5h4.8l11.2,50.5h-3.3L191.1,50H175.4z M175.9,47.2h14.7l-7.4-32.6
		L175.9,47.2z"/>
	<path style="fill:#FFFFFF;" d="M207.7,61.2V13.8h-10.2v-3h23.8v3H211v47.4H207.7z"/>
	<path style="fill:#FFFFFF;" d="M232.2,37.5l-3.5,5.5v18.2h-3.3V10.8h3.3v26.6l16.4-26.6h3.5l-14.4,23.5l15.3,26.9h-3.5L232.2,37.5z
		"/>
	<path style="fill:#FFFFFF;" d="M257.8,10.8v50.4h-3.3V10.8H257.8z"/>
	<path style="fill:#FFFFFF;" d="M266.6,61.2h-3V10.8h4.3L283,53.4V10.8h3v50.4h-3.7l-15.8-44.9V61.2z"/>
	<path style="fill:#FFFFFF;" d="M313,23V24h-3.2v-1.3c0-5.3-2-9.4-7.5-9.4c-5.5,0-7.5,4-7.5,9.3c0,12.2,18.2,12.5,18.2,26.4
		c0,7.3-3.2,12.6-10.9,12.6c-7.7,0-10.9-5.3-10.9-12.6v-2.6h3.2v2.8c0,5.4,2.1,9.3,7.6,9.3c5.5,0,7.6-3.9,7.6-9.3
		c0-12.1-18.2-12.3-18.2-26.4c0-7.6,3.3-12.5,10.7-12.5C309.9,10.4,313,15.7,313,23z"/>
</g>
</svg>
